<mxfile host="app.diagrams.net" modified="2020-12-10T12:36:30.157Z" agent="5.0 (Windows NT 10.0; Win64; x64) AppleWebKit/537.36 (KHTML, like Gecko) Chrome/87.0.4280.88 Safari/537.36 Edg/87.0.664.57" etag="YE-y0__WGqjJTkCs8S4n" version="14.0.0" type="github" pages="3">
  <diagram id="y3OJbxJZMRT9WALCF3M-" name="Page-1">
    <mxGraphModel dx="782" dy="469" grid="1" gridSize="10" guides="1" tooltips="1" connect="1" arrows="1" fold="1" page="1" pageScale="1" pageWidth="827" pageHeight="1169" math="0" shadow="0">
      <root>
        <mxCell id="0" />
        <mxCell id="1" parent="0" />
        <mxCell id="4DIrTT-UcjF7yfP_xazC-5" value="" style="edgeStyle=orthogonalEdgeStyle;rounded=0;orthogonalLoop=1;jettySize=auto;html=1;" parent="1" source="4DIrTT-UcjF7yfP_xazC-1" target="4DIrTT-UcjF7yfP_xazC-2" edge="1">
          <mxGeometry relative="1" as="geometry" />
        </mxCell>
        <mxCell id="4DIrTT-UcjF7yfP_xazC-1" value="&lt;font style=&quot;font-size: 18px&quot;&gt;召回层&lt;/font&gt;" style="rounded=1;whiteSpace=wrap;html=1;" parent="1" vertex="1">
          <mxGeometry x="70" y="420" width="120" height="60" as="geometry" />
        </mxCell>
        <mxCell id="4DIrTT-UcjF7yfP_xazC-6" value="" style="edgeStyle=orthogonalEdgeStyle;rounded=0;orthogonalLoop=1;jettySize=auto;html=1;" parent="1" source="4DIrTT-UcjF7yfP_xazC-2" target="4DIrTT-UcjF7yfP_xazC-3" edge="1">
          <mxGeometry relative="1" as="geometry" />
        </mxCell>
        <mxCell id="4DIrTT-UcjF7yfP_xazC-2" value="&lt;font style=&quot;font-size: 18px&quot;&gt;排序层&lt;/font&gt;" style="rounded=1;whiteSpace=wrap;html=1;" parent="1" vertex="1">
          <mxGeometry x="240" y="420" width="120" height="60" as="geometry" />
        </mxCell>
        <mxCell id="lo9uGpaXZ623VdwVhiWb-6" value="" style="edgeStyle=orthogonalEdgeStyle;rounded=0;orthogonalLoop=1;jettySize=auto;html=1;" parent="1" source="4DIrTT-UcjF7yfP_xazC-3" target="lo9uGpaXZ623VdwVhiWb-1" edge="1">
          <mxGeometry relative="1" as="geometry" />
        </mxCell>
        <mxCell id="4DIrTT-UcjF7yfP_xazC-3" value="&lt;font style=&quot;font-size: 18px&quot;&gt;业务干预层&lt;/font&gt;" style="rounded=1;whiteSpace=wrap;html=1;" parent="1" vertex="1">
          <mxGeometry x="410" y="420" width="120" height="60" as="geometry" />
        </mxCell>
        <mxCell id="4DIrTT-UcjF7yfP_xazC-8" value="" style="edgeStyle=orthogonalEdgeStyle;rounded=0;orthogonalLoop=1;jettySize=auto;html=1;" parent="1" source="4DIrTT-UcjF7yfP_xazC-4" target="4DIrTT-UcjF7yfP_xazC-2" edge="1">
          <mxGeometry relative="1" as="geometry" />
        </mxCell>
        <mxCell id="4DIrTT-UcjF7yfP_xazC-4" value="&lt;font style=&quot;font-size: 18px&quot;&gt;模型训练&lt;/font&gt;" style="whiteSpace=wrap;html=1;aspect=fixed;" parent="1" vertex="1">
          <mxGeometry x="235" y="200" width="130" height="130" as="geometry" />
        </mxCell>
        <mxCell id="lo9uGpaXZ623VdwVhiWb-1" value="&lt;font style=&quot;font-size: 18px&quot;&gt;输出&lt;/font&gt;" style="rounded=1;whiteSpace=wrap;html=1;" parent="1" vertex="1">
          <mxGeometry x="580" y="420" width="120" height="60" as="geometry" />
        </mxCell>
        <mxCell id="lo9uGpaXZ623VdwVhiWb-4" value="" style="edgeStyle=orthogonalEdgeStyle;rounded=0;orthogonalLoop=1;jettySize=auto;html=1;" parent="1" source="lo9uGpaXZ623VdwVhiWb-3" target="4DIrTT-UcjF7yfP_xazC-4" edge="1">
          <mxGeometry relative="1" as="geometry" />
        </mxCell>
        <mxCell id="lo9uGpaXZ623VdwVhiWb-3" value="&lt;font style=&quot;font-size: 18px&quot;&gt;离线数据&lt;/font&gt;" style="rounded=0;whiteSpace=wrap;html=1;" parent="1" vertex="1">
          <mxGeometry x="70" y="220" width="120" height="90" as="geometry" />
        </mxCell>
        <mxCell id="lo9uGpaXZ623VdwVhiWb-10" value="" style="edgeStyle=orthogonalEdgeStyle;rounded=0;orthogonalLoop=1;jettySize=auto;html=1;" parent="1" source="lo9uGpaXZ623VdwVhiWb-7" target="4DIrTT-UcjF7yfP_xazC-1" edge="1">
          <mxGeometry relative="1" as="geometry" />
        </mxCell>
        <mxCell id="lo9uGpaXZ623VdwVhiWb-7" value="&lt;font style=&quot;font-size: 18px&quot;&gt;实时数据&lt;/font&gt;" style="rounded=0;whiteSpace=wrap;html=1;" parent="1" vertex="1">
          <mxGeometry x="70" y="320" width="120" height="60" as="geometry" />
        </mxCell>
        <mxCell id="lo9uGpaXZ623VdwVhiWb-8" value="" style="rounded=0;whiteSpace=wrap;html=1;fillColor=none;" parent="1" vertex="1">
          <mxGeometry x="60" y="180" width="140" height="220" as="geometry" />
        </mxCell>
        <mxCell id="lo9uGpaXZ623VdwVhiWb-9" value="&lt;font style=&quot;font-size: 18px&quot;&gt;数据&lt;/font&gt;" style="rounded=1;whiteSpace=wrap;html=1;fillColor=none;shadow=0;strokeColor=none;" parent="1" vertex="1">
          <mxGeometry x="100" y="180" width="60" height="40" as="geometry" />
        </mxCell>
      </root>
    </mxGraphModel>
  </diagram>
  <diagram id="qOzWIOKnJDpPFaP6Qteu" name="Page-2">
    <mxGraphModel dx="782" dy="469" grid="1" gridSize="10" guides="1" tooltips="1" connect="1" arrows="1" fold="1" page="1" pageScale="1" pageWidth="827" pageHeight="1169" math="0" shadow="0">
      <root>
        <mxCell id="z6bSpUeK_4V_DU-t9zNh-0" />
        <mxCell id="z6bSpUeK_4V_DU-t9zNh-1" parent="z6bSpUeK_4V_DU-t9zNh-0" />
        <mxCell id="3U9tWVq6ksxRw8IESGGZ-7" value="" style="edgeStyle=orthogonalEdgeStyle;rounded=0;orthogonalLoop=1;jettySize=auto;html=1;" edge="1" parent="z6bSpUeK_4V_DU-t9zNh-1" source="3U9tWVq6ksxRw8IESGGZ-1" target="3U9tWVq6ksxRw8IESGGZ-2">
          <mxGeometry relative="1" as="geometry" />
        </mxCell>
        <mxCell id="3U9tWVq6ksxRw8IESGGZ-1" value="&lt;font style=&quot;font-size: 18px&quot;&gt;博引系统&lt;/font&gt;" style="rounded=1;whiteSpace=wrap;html=1;" vertex="1" parent="z6bSpUeK_4V_DU-t9zNh-1">
          <mxGeometry x="460" y="230" width="120" height="60" as="geometry" />
        </mxCell>
        <mxCell id="3U9tWVq6ksxRw8IESGGZ-9" style="edgeStyle=orthogonalEdgeStyle;rounded=0;orthogonalLoop=1;jettySize=auto;html=1;entryX=0;entryY=0.5;entryDx=0;entryDy=0;" edge="1" parent="z6bSpUeK_4V_DU-t9zNh-1" source="3U9tWVq6ksxRw8IESGGZ-2" target="3U9tWVq6ksxRw8IESGGZ-5">
          <mxGeometry relative="1" as="geometry">
            <Array as="points">
              <mxPoint x="340" y="460" />
            </Array>
          </mxGeometry>
        </mxCell>
        <mxCell id="3U9tWVq6ksxRw8IESGGZ-2" value="&lt;font style=&quot;font-size: 18px&quot;&gt;Kafka&lt;/font&gt;" style="rounded=0;whiteSpace=wrap;html=1;" vertex="1" parent="z6bSpUeK_4V_DU-t9zNh-1">
          <mxGeometry x="280" y="330" width="120" height="60" as="geometry" />
        </mxCell>
        <mxCell id="3U9tWVq6ksxRw8IESGGZ-10" value="" style="edgeStyle=orthogonalEdgeStyle;rounded=0;orthogonalLoop=1;jettySize=auto;html=1;" edge="1" parent="z6bSpUeK_4V_DU-t9zNh-1" source="3U9tWVq6ksxRw8IESGGZ-5" target="3U9tWVq6ksxRw8IESGGZ-6">
          <mxGeometry relative="1" as="geometry" />
        </mxCell>
        <mxCell id="3U9tWVq6ksxRw8IESGGZ-5" value="&lt;font style=&quot;font-size: 18px&quot;&gt;微博推荐系统&lt;/font&gt;" style="rounded=1;whiteSpace=wrap;html=1;" vertex="1" parent="z6bSpUeK_4V_DU-t9zNh-1">
          <mxGeometry x="460" y="430" width="120" height="60" as="geometry" />
        </mxCell>
        <mxCell id="3U9tWVq6ksxRw8IESGGZ-11" value="" style="edgeStyle=orthogonalEdgeStyle;rounded=0;orthogonalLoop=1;jettySize=auto;html=1;" edge="1" parent="z6bSpUeK_4V_DU-t9zNh-1" source="3U9tWVq6ksxRw8IESGGZ-6" target="3U9tWVq6ksxRw8IESGGZ-1">
          <mxGeometry relative="1" as="geometry" />
        </mxCell>
        <mxCell id="3U9tWVq6ksxRw8IESGGZ-6" value="&lt;font style=&quot;font-size: 18px&quot;&gt;Redis&lt;/font&gt;" style="rounded=0;whiteSpace=wrap;html=1;" vertex="1" parent="z6bSpUeK_4V_DU-t9zNh-1">
          <mxGeometry x="460" y="330" width="120" height="60" as="geometry" />
        </mxCell>
        <mxCell id="3U9tWVq6ksxRw8IESGGZ-8" value="微博" style="text;html=1;strokeColor=none;fillColor=none;align=center;verticalAlign=middle;whiteSpace=wrap;rounded=0;fontSize=16;" vertex="1" parent="z6bSpUeK_4V_DU-t9zNh-1">
          <mxGeometry x="360" y="230" width="40" height="20" as="geometry" />
        </mxCell>
        <mxCell id="3U9tWVq6ksxRw8IESGGZ-12" value="&lt;font style=&quot;font-size: 16px&quot;&gt;微博推荐列表&lt;/font&gt;" style="text;html=1;strokeColor=none;fillColor=none;align=center;verticalAlign=middle;whiteSpace=wrap;rounded=0;" vertex="1" parent="z6bSpUeK_4V_DU-t9zNh-1">
          <mxGeometry x="530" y="400" width="100" height="20" as="geometry" />
        </mxCell>
        <mxCell id="3U9tWVq6ksxRw8IESGGZ-19" value="" style="edgeStyle=orthogonalEdgeStyle;rounded=0;orthogonalLoop=1;jettySize=auto;html=1;" edge="1" parent="z6bSpUeK_4V_DU-t9zNh-1" source="3U9tWVq6ksxRw8IESGGZ-13" target="3U9tWVq6ksxRw8IESGGZ-14">
          <mxGeometry relative="1" as="geometry" />
        </mxCell>
        <mxCell id="3U9tWVq6ksxRw8IESGGZ-13" value="&lt;font style=&quot;font-size: 18px&quot;&gt;Hive&lt;/font&gt;" style="rounded=0;whiteSpace=wrap;html=1;" vertex="1" parent="z6bSpUeK_4V_DU-t9zNh-1">
          <mxGeometry x="140" y="490" width="100" height="60" as="geometry" />
        </mxCell>
        <mxCell id="3U9tWVq6ksxRw8IESGGZ-18" style="edgeStyle=orthogonalEdgeStyle;rounded=0;orthogonalLoop=1;jettySize=auto;html=1;entryX=0;entryY=0.5;entryDx=0;entryDy=0;" edge="1" parent="z6bSpUeK_4V_DU-t9zNh-1" source="3U9tWVq6ksxRw8IESGGZ-14" target="3U9tWVq6ksxRw8IESGGZ-5">
          <mxGeometry relative="1" as="geometry">
            <Array as="points">
              <mxPoint x="340" y="460" />
            </Array>
          </mxGeometry>
        </mxCell>
        <mxCell id="3U9tWVq6ksxRw8IESGGZ-14" value="&lt;font style=&quot;font-size: 18px&quot;&gt;用户&lt;br&gt;数据&lt;/font&gt;" style="whiteSpace=wrap;html=1;aspect=fixed;" vertex="1" parent="z6bSpUeK_4V_DU-t9zNh-1">
          <mxGeometry x="310" y="490" width="60" height="60" as="geometry" />
        </mxCell>
        <mxCell id="3U9tWVq6ksxRw8IESGGZ-16" value="&lt;font style=&quot;font-size: 16px&quot;&gt;存到本地&lt;/font&gt;" style="text;html=1;strokeColor=none;fillColor=none;align=center;verticalAlign=middle;whiteSpace=wrap;rounded=0;" vertex="1" parent="z6bSpUeK_4V_DU-t9zNh-1">
          <mxGeometry x="240" y="490" width="70" height="20" as="geometry" />
        </mxCell>
      </root>
    </mxGraphModel>
  </diagram>
  <diagram id="hzbcYWreeCkhvl8xmluv" name="Page-3">
    <mxGraphModel dx="782" dy="469" grid="1" gridSize="10" guides="1" tooltips="1" connect="1" arrows="1" fold="1" page="1" pageScale="1" pageWidth="827" pageHeight="1169" math="0" shadow="0">
      <root>
        <mxCell id="_mQQ3ckWKwWM1meM4ai7-0" />
        <mxCell id="_mQQ3ckWKwWM1meM4ai7-1" parent="_mQQ3ckWKwWM1meM4ai7-0" />
        <mxCell id="pDpVAzXqW6PmKJm5gYY_-0" value="" style="rounded=0;whiteSpace=wrap;html=1;" vertex="1" parent="_mQQ3ckWKwWM1meM4ai7-1">
          <mxGeometry x="200" y="400" width="290" height="150" as="geometry" />
        </mxCell>
        <mxCell id="pDpVAzXqW6PmKJm5gYY_-1" value="&lt;font style=&quot;font-size: 18px&quot;&gt;微博特征&lt;br&gt;分析模块&lt;/font&gt;" style="rounded=0;whiteSpace=wrap;html=1;strokeColor=#FFFFFF;" vertex="1" parent="_mQQ3ckWKwWM1meM4ai7-1">
          <mxGeometry x="220" y="445" width="90" height="60" as="geometry" />
        </mxCell>
        <mxCell id="pDpVAzXqW6PmKJm5gYY_-2" style="edgeStyle=orthogonalEdgeStyle;rounded=0;orthogonalLoop=1;jettySize=auto;html=1;entryX=0;entryY=0.5;entryDx=0;entryDy=0;" edge="1" source="pDpVAzXqW6PmKJm5gYY_-3" target="pDpVAzXqW6PmKJm5gYY_-12" parent="_mQQ3ckWKwWM1meM4ai7-1">
          <mxGeometry relative="1" as="geometry">
            <Array as="points">
              <mxPoint x="400" y="345" />
            </Array>
          </mxGeometry>
        </mxCell>
        <mxCell id="pDpVAzXqW6PmKJm5gYY_-3" value="&lt;font style=&quot;font-size: 18px&quot;&gt;召回特征&lt;br&gt;分析模块&lt;/font&gt;" style="rounded=0;whiteSpace=wrap;html=1;" vertex="1" parent="_mQQ3ckWKwWM1meM4ai7-1">
          <mxGeometry x="340" y="410" width="120" height="60" as="geometry" />
        </mxCell>
        <mxCell id="pDpVAzXqW6PmKJm5gYY_-4" style="edgeStyle=orthogonalEdgeStyle;rounded=0;orthogonalLoop=1;jettySize=auto;html=1;entryX=0;entryY=0.5;entryDx=0;entryDy=0;" edge="1" source="pDpVAzXqW6PmKJm5gYY_-5" target="pDpVAzXqW6PmKJm5gYY_-14" parent="_mQQ3ckWKwWM1meM4ai7-1">
          <mxGeometry relative="1" as="geometry">
            <Array as="points">
              <mxPoint x="400" y="600" />
            </Array>
          </mxGeometry>
        </mxCell>
        <mxCell id="pDpVAzXqW6PmKJm5gYY_-5" value="&lt;font style=&quot;font-size: 18px&quot;&gt;排序特征&lt;br&gt;分析模块&lt;/font&gt;" style="rounded=0;whiteSpace=wrap;html=1;" vertex="1" parent="_mQQ3ckWKwWM1meM4ai7-1">
          <mxGeometry x="340" y="480" width="120" height="60" as="geometry" />
        </mxCell>
        <mxCell id="pDpVAzXqW6PmKJm5gYY_-6" value="" style="rounded=0;whiteSpace=wrap;html=1;" vertex="1" parent="_mQQ3ckWKwWM1meM4ai7-1">
          <mxGeometry x="680" y="400" width="290" height="150" as="geometry" />
        </mxCell>
        <mxCell id="pDpVAzXqW6PmKJm5gYY_-7" value="&lt;font style=&quot;font-size: 18px&quot;&gt;用户特征&lt;br&gt;分析模块&lt;/font&gt;" style="rounded=0;whiteSpace=wrap;html=1;strokeColor=#FFFFFF;" vertex="1" parent="_mQQ3ckWKwWM1meM4ai7-1">
          <mxGeometry x="860" y="445" width="90" height="60" as="geometry" />
        </mxCell>
        <mxCell id="pDpVAzXqW6PmKJm5gYY_-8" style="edgeStyle=orthogonalEdgeStyle;rounded=0;orthogonalLoop=1;jettySize=auto;html=1;entryX=1;entryY=0.5;entryDx=0;entryDy=0;" edge="1" source="pDpVAzXqW6PmKJm5gYY_-9" target="pDpVAzXqW6PmKJm5gYY_-12" parent="_mQQ3ckWKwWM1meM4ai7-1">
          <mxGeometry relative="1" as="geometry">
            <Array as="points">
              <mxPoint x="770" y="345" />
            </Array>
          </mxGeometry>
        </mxCell>
        <mxCell id="pDpVAzXqW6PmKJm5gYY_-9" value="&lt;font style=&quot;font-size: 18px&quot;&gt;召回特征&lt;br&gt;分析模块&lt;/font&gt;" style="rounded=0;whiteSpace=wrap;html=1;" vertex="1" parent="_mQQ3ckWKwWM1meM4ai7-1">
          <mxGeometry x="710" y="410" width="120" height="60" as="geometry" />
        </mxCell>
        <mxCell id="pDpVAzXqW6PmKJm5gYY_-10" style="edgeStyle=orthogonalEdgeStyle;rounded=0;orthogonalLoop=1;jettySize=auto;html=1;exitX=0.5;exitY=1;exitDx=0;exitDy=0;entryX=1;entryY=0.5;entryDx=0;entryDy=0;" edge="1" source="pDpVAzXqW6PmKJm5gYY_-11" target="pDpVAzXqW6PmKJm5gYY_-14" parent="_mQQ3ckWKwWM1meM4ai7-1">
          <mxGeometry relative="1" as="geometry" />
        </mxCell>
        <mxCell id="pDpVAzXqW6PmKJm5gYY_-11" value="&lt;font style=&quot;font-size: 18px&quot;&gt;排序特征&lt;br&gt;分析模块&lt;/font&gt;" style="rounded=0;whiteSpace=wrap;html=1;" vertex="1" parent="_mQQ3ckWKwWM1meM4ai7-1">
          <mxGeometry x="710" y="480" width="120" height="60" as="geometry" />
        </mxCell>
        <mxCell id="pDpVAzXqW6PmKJm5gYY_-12" value="&lt;font style=&quot;font-size: 18px&quot;&gt;召回层&lt;/font&gt;" style="rounded=0;whiteSpace=wrap;html=1;strokeColor=#000000;" vertex="1" parent="_mQQ3ckWKwWM1meM4ai7-1">
          <mxGeometry x="530" y="315" width="120" height="60" as="geometry" />
        </mxCell>
        <mxCell id="pDpVAzXqW6PmKJm5gYY_-13" value="&lt;font style=&quot;font-size: 16px&quot;&gt;局部敏感哈希&lt;/font&gt;" style="text;html=1;strokeColor=none;fillColor=none;align=center;verticalAlign=middle;whiteSpace=wrap;rounded=0;" vertex="1" parent="_mQQ3ckWKwWM1meM4ai7-1">
          <mxGeometry x="535" y="280" width="110" height="20" as="geometry" />
        </mxCell>
        <mxCell id="pDpVAzXqW6PmKJm5gYY_-14" value="&lt;font style=&quot;font-size: 16px&quot;&gt;排序层&lt;/font&gt;" style="rounded=0;whiteSpace=wrap;html=1;strokeColor=#000000;" vertex="1" parent="_mQQ3ckWKwWM1meM4ai7-1">
          <mxGeometry x="530" y="570" width="120" height="60" as="geometry" />
        </mxCell>
        <mxCell id="pDpVAzXqW6PmKJm5gYY_-15" value="&lt;font style=&quot;font-size: 16px&quot;&gt;基于文本相似度的排序&lt;/font&gt;" style="text;html=1;strokeColor=none;fillColor=none;align=center;verticalAlign=middle;whiteSpace=wrap;rounded=0;" vertex="1" parent="_mQQ3ckWKwWM1meM4ai7-1">
          <mxGeometry x="505" y="650" width="170" height="20" as="geometry" />
        </mxCell>
        <mxCell id="pDpVAzXqW6PmKJm5gYY_-16" value="1.77G&lt;br&gt;召回特征" style="text;html=1;strokeColor=none;fillColor=none;align=center;verticalAlign=middle;whiteSpace=wrap;rounded=0;" vertex="1" parent="_mQQ3ckWKwWM1meM4ai7-1">
          <mxGeometry x="835" y="410" width="60" height="20" as="geometry" />
        </mxCell>
        <mxCell id="pDpVAzXqW6PmKJm5gYY_-17" value="1.8G阅读新闻行为数据" style="text;html=1;strokeColor=none;fillColor=none;align=center;verticalAlign=middle;whiteSpace=wrap;rounded=0;" vertex="1" parent="_mQQ3ckWKwWM1meM4ai7-1">
          <mxGeometry x="832" y="520" width="70" height="20" as="geometry" />
        </mxCell>
      </root>
    </mxGraphModel>
  </diagram>
</mxfile>
